<svg width="20" height="21" viewBox="0 0 20 21" fill="none" xmlns="http://www.w3.org/2000/svg">
<path d="M13.8298 5.24709C13.2603 4.5967 12.9464 3.76159 12.9465 2.89709H10.3715V13.2304C10.3521 13.7898 10.1161 14.3197 9.71342 14.7083C9.31074 15.097 8.77283 15.3141 8.21316 15.3138C7.02983 15.3138 6.0465 14.3471 6.0465 13.1471C6.0465 11.7138 7.42983 10.6388 8.85483 11.0804V8.44709C5.97983 8.06376 3.46317 10.2971 3.46317 13.1471C3.46317 15.9221 5.76317 17.8971 8.20483 17.8971C10.8215 17.8971 12.9465 15.7721 12.9465 13.1471V7.90543C13.9907 8.6553 15.2443 9.05763 16.5298 9.05543V6.48043C16.5298 6.48043 14.9632 6.55543 13.8298 5.24709Z" fill="white"/>
</svg>
