<svg width="18" height="19" viewBox="0 0 18 19" fill="none" xmlns="http://www.w3.org/2000/svg">
<path d="M17.9507 5.68914C17.9086 4.73273 17.7539 4.07521 17.5324 3.50546C17.3038 2.90068 16.9522 2.35922 16.4915 1.90911C16.0414 1.45199 15.4963 1.09679 14.8986 0.871797C14.3255 0.650242 13.6714 0.495579 12.715 0.453411C11.7515 0.407671 11.4456 0.397095 9.00174 0.397095C6.55791 0.397095 6.25202 0.407671 5.29204 0.449839C4.33563 0.492008 3.67811 0.646808 3.1085 0.868226C2.50358 1.09679 1.96213 1.44842 1.51201 1.90911C1.05489 2.35922 0.699827 2.90425 0.474701 3.50203C0.253147 4.07521 0.098484 4.72916 0.0563158 5.68557C0.0105764 6.64912 0 6.95502 0 9.39885C0 11.8427 0.0105764 12.1486 0.0527446 13.1086C0.0949128 14.065 0.249713 14.7225 0.471267 15.2922C0.699827 15.897 1.05489 16.4385 1.51201 16.8886C1.96213 17.3457 2.50715 17.7009 3.10493 17.9259C3.67811 18.1475 4.33206 18.3021 5.28861 18.3443C6.24845 18.3866 6.55448 18.397 8.99831 18.397C11.4421 18.397 11.748 18.3866 12.708 18.3443C13.6644 18.3021 14.3219 18.1475 14.8916 17.9259C16.1012 17.4582 17.0577 16.5018 17.5254 15.2922C17.7468 14.7191 17.9016 14.065 17.9437 13.1086C17.9859 12.1486 17.9965 11.8427 17.9965 9.39885C17.9965 6.95502 17.9929 6.64912 17.9507 5.68914ZM16.3298 13.0382C16.2911 13.9173 16.1434 14.392 16.0203 14.7085C15.7179 15.4926 15.0955 16.115 14.3114 16.4175C13.9949 16.5405 13.5168 16.6882 12.6411 16.7268C11.6917 16.7691 11.407 16.7795 9.00531 16.7795C6.60365 16.7795 6.31534 16.7691 5.36937 16.7268C4.4903 16.6882 4.01559 16.5405 3.69913 16.4175C3.3089 16.2732 2.9537 16.0447 2.66539 15.7458C2.3665 15.4539 2.13794 15.1023 1.99372 14.7121C1.87065 14.3956 1.72299 13.9173 1.68439 13.0418C1.64209 12.0924 1.63165 11.8075 1.63165 9.40586C1.63165 7.00419 1.64209 6.71588 1.68439 5.77005C1.72299 4.89097 1.87065 4.41627 1.99372 4.0998C2.13794 3.70943 2.3665 3.35437 2.66896 3.06592C2.9607 2.76703 3.31233 2.53847 3.7027 2.39439C4.01917 2.27132 4.49744 2.12366 5.37294 2.08492C6.32235 2.04276 6.60722 2.03218 9.00875 2.03218C11.414 2.03218 11.6987 2.04276 12.6447 2.08492C13.5238 2.12366 13.9985 2.27132 14.3149 2.39439C14.7052 2.53847 15.0604 2.76703 15.3487 3.06592C15.6476 3.3578 15.8761 3.70943 16.0203 4.0998C16.1434 4.41627 16.2911 4.8944 16.3298 5.77005C16.372 6.71945 16.3826 7.00419 16.3826 9.40586C16.3826 11.8075 16.372 12.0888 16.3298 13.0382Z" fill="white"/>
<path d="M9.00188 4.77454C6.44912 4.77454 4.37793 6.84559 4.37793 9.39849C4.37793 11.9514 6.44912 14.0224 9.00188 14.0224C11.5548 14.0224 13.6258 11.9514 13.6258 9.39849C13.6258 6.84559 11.5548 4.77454 9.00188 4.77454ZM9.00188 12.3979C7.34578 12.3979 6.00244 11.0547 6.00244 9.39849C6.00244 7.74225 7.34578 6.39904 9.00188 6.39904C10.6581 6.39904 12.0013 7.74225 12.0013 9.39849C12.0013 11.0547 10.6581 12.3979 9.00188 12.3979Z" fill="white"/>
<path d="M14.8876 4.5923C14.8876 5.18843 14.4043 5.67179 13.808 5.67179C13.2119 5.67179 12.7285 5.18843 12.7285 4.5923C12.7285 3.99604 13.2119 3.51282 13.808 3.51282C14.4043 3.51282 14.8876 3.99604 14.8876 4.5923Z" fill="white"/>
</svg>
