<svg width="40" height="40" viewBox="0 0 40 40" fill="none" xmlns="http://www.w3.org/2000/svg">
<path d="M9.87852 3.67297C16.67 3.67334 23.4619 3.67408 30.2533 3.67445C31.33 5.48445 32.4067 7.29445 33.4833 9.10445C31.7319 12.067 29.9804 15.03 28.2289 17.9926C26.2578 17.993 24.2867 17.9933 22.3156 17.9937C24.333 14.6004 26.3504 11.207 28.3678 7.81371C26.7163 7.81371 25.0652 7.81334 23.4137 7.81297C21.3978 11.2067 19.3815 14.6 17.3656 17.9937C15.6759 17.9937 13.9863 17.9937 12.2967 17.9937C14.3122 14.6 16.3274 11.2059 18.343 7.81222C16.6911 7.81222 15.0396 7.8126 13.3878 7.81297C10.9033 11.9937 8.41926 16.1744 5.93482 20.3552C6.54333 21.377 7.15222 22.3989 7.76074 23.4207C6.80593 25.0222 5.85148 26.6233 4.89667 28.2248C3.29 25.5404 1.68333 22.8556 0.0766678 20.1711C3.34408 14.6719 6.61111 9.17222 9.87852 3.67297Z" fill="black"/>
<path d="M30.1215 36.327C23.33 36.3267 16.5381 36.3259 9.74667 36.3256C8.67 34.5156 7.59333 32.7056 6.51667 30.8956C8.26815 27.933 10.0196 24.97 11.7711 22.0074C13.7422 22.007 15.7133 22.0067 17.6844 22.0063C15.667 25.3996 13.6496 28.793 11.6322 32.1863C13.2837 32.1863 14.9348 32.1867 16.5863 32.187C18.6022 28.7933 20.6185 25.4 22.6344 22.0063C24.3241 22.0063 26.0137 22.0063 27.7033 22.0063C25.6878 25.4 23.6726 28.7941 21.657 32.1878C23.3089 32.1878 24.9604 32.1874 26.6122 32.187C29.0967 28.0063 31.5807 23.8256 34.0652 19.6448C33.4567 18.623 32.8478 17.6011 32.2393 16.5793C33.1941 14.9778 34.1485 13.3767 35.1033 11.7752C36.71 14.4596 38.3167 17.1444 39.9233 19.8289C36.6559 25.3281 33.3889 30.8278 30.1215 36.327Z" fill="black"/>
</svg>
